<svg preserveAspectRatio="none" overflow="visible" style="display: block;" width="28" height="32" viewBox="0 0 28 32" fill="none" xmlns="http://www.w3.org/2000/svg">
<g id="Group">
<path id="Vector" d="M8.67601 3.18C6.77109 3.70464 4.8792 4.27547 3.00201 4.892C2.83047 4.94732 2.67797 5.04982 2.56195 5.18776C2.44594 5.3257 2.37111 5.49351 2.34601 5.672C1.23801 13.986 3.79801 20.052 6.85201 24.048C8.14447 25.7573 9.68634 27.2627 11.426 28.514C12.118 29.002 12.73 29.354 13.212 29.58C13.452 29.6933 13.6473 29.772 13.798 29.816C13.8644 29.8362 13.9319 29.8528 14 29.866C14.0675 29.8528 14.1342 29.8361 14.2 29.816C14.352 29.7707 14.548 29.692 14.788 29.58C15.268 29.354 15.882 29 16.574 28.514C18.3137 27.2627 19.8555 25.7573 21.148 24.048C24.202 20.054 26.762 13.986 25.654 5.672C25.6289 5.49351 25.5541 5.3257 25.4381 5.18776C25.3221 5.04982 25.1696 4.94732 24.998 4.892C23.696 4.466 21.498 3.772 19.324 3.182C17.104 2.58 15.062 2.134 14 2.134C12.94 2.134 10.896 2.578 8.67601 3.18ZM8.14401 1.12C10.314 0.53 12.62 0 14 0C15.38 0 17.686 0.53 19.856 1.12C22.076 1.72 24.314 2.43 25.63 2.86C26.1802 3.0417 26.668 3.37493 27.0374 3.8214C27.4067 4.26787 27.6426 4.80948 27.718 5.384C28.91 14.338 26.144 20.974 22.788 25.364C21.3643 27.2415 19.6675 28.8951 17.754 30.27C17.0931 30.7469 16.3917 31.1651 15.658 31.52C15.098 31.784 14.496 32 14 32C13.504 32 12.904 31.784 12.342 31.52C11.6083 31.1651 10.907 30.7469 10.246 30.27C8.33251 28.8951 6.6357 27.2415 5.21201 25.364C1.85601 20.974 -0.909989 14.338 0.282011 5.384C0.357385 4.80948 0.593297 4.26787 0.962645 3.8214C1.33199 3.37493 1.81979 3.0417 2.37001 2.86C4.28052 2.23402 6.20574 1.65385 8.14401 1.12Z" fill="black"/>
<path id="Vector_2" d="M19.708 10.292C19.8011 10.3849 19.875 10.4952 19.9254 10.6167C19.9758 10.7382 20.0018 10.8685 20.0018 11C20.0018 11.1315 19.9758 11.2618 19.9254 11.3833C19.875 11.5048 19.8011 11.6151 19.708 11.708L13.708 17.708C13.6151 17.8011 13.5048 17.875 13.3833 17.9254C13.2618 17.9758 13.1315 18.0018 13 18.0018C12.8685 18.0018 12.7382 17.9758 12.6167 17.9254C12.4953 17.875 12.3849 17.8011 12.292 17.708L9.29201 14.708C9.19903 14.615 9.12528 14.5046 9.07496 14.3832C9.02465 14.2617 8.99875 14.1315 8.99875 14C8.99875 13.8685 9.02465 13.7383 9.07496 13.6168C9.12528 13.4954 9.19903 13.385 9.29201 13.292C9.38499 13.199 9.49536 13.1253 9.61684 13.075C9.73832 13.0246 9.86852 12.9987 10 12.9987C10.1315 12.9987 10.2617 13.0246 10.3832 13.075C10.5047 13.1253 10.615 13.199 10.708 13.292L13 15.586L18.292 10.292C18.3849 10.1989 18.4953 10.125 18.6167 10.0746C18.7382 10.0242 18.8685 9.99821 19 9.99821C19.1315 9.99821 19.2618 10.0242 19.3833 10.0746C19.5048 10.125 19.6151 10.1989 19.708 10.292Z" fill="black"/>
</g>
</svg>
